<?xml version="1.0" standalone="no"?>
<!DOCTYPE svg PUBLIC "-//W3C//DTD SVG 20010904//EN"
 "http://www.w3.org/TR/2001/REC-SVG-20010904/DTD/svg10.dtd">
<svg version="1.0" xmlns="http://www.w3.org/2000/svg"
 width="500.000000pt" height="500.000000pt" viewBox="0 0 500.000000 500.000000"
 preserveAspectRatio="xMidYMid meet">
<metadata>
Created by potrace 1.14, written by Peter Selinger 2001-2017
</metadata>
<g transform="translate(0.000000,500.000000) scale(0.100000,-0.100000)"
fill="#000000" stroke="none">
<path d="M2447 3986 c-137 -51 -212 -185 -172 -306 22 -66 66 -124 115 -152
22 -13 40 -28 40 -35 0 -6 9 -15 21 -18 31 -10 4 -35 -38 -35 -114 0 -292 -85
-411 -196 -45 -41 -84 -83 -87 -93 -3 -10 -13 -18 -23 -17 -12 1 -17 -7 -18
-24 -1 -14 -13 -48 -27 -77 -15 -28 -36 -87 -48 -130 -19 -68 -21 -96 -17
-218 5 -122 9 -148 32 -202 14 -34 26 -73 26 -86 0 -42 265 -318 290 -302 6 4
9 1 8 -6 -2 -8 12 -15 35 -19 21 -4 50 -16 66 -27 40 -30 187 -47 335 -39 109
6 125 10 195 43 214 102 347 244 418 448 26 74 28 92 28 230 0 139 -2 156 -28
230 -16 44 -44 105 -63 136 -42 70 -197 243 -241 271 -36 21 -146 53 -252 72
-36 7 -66 17 -69 24 -2 7 2 12 9 12 6 0 21 9 33 21 12 11 40 34 63 50 67 46
97 99 101 181 5 83 -13 136 -64 191 -68 73 -175 104 -257 73z m190 -47 c17
-13 43 -43 58 -67 54 -84 30 -232 -47 -297 -32 -27 -50 -27 -28 0 11 13 10 14
-4 9 -20 -8 -20 0 0 31 34 53 -23 135 -94 135 -72 0 -126 -72 -102 -135 16
-41 6 -41 -28 1 -71 86 -63 199 18 268 86 71 208 49 265 -48 36 -62 34 -123
-6 -195 -18 -31 -25 -50 -16 -43 29 25 59 101 59 152 0 143 -139 245 -267 195
-112 -42 -167 -183 -114 -292 27 -56 17 -69 -10 -14 -23 45 -28 122 -11 183
13 44 50 91 99 124 32 21 45 24 117 21 68 -3 86 -7 111 -28z m-138 -267 l-1
-27 -8 30 -8 30 -2 -30 c-2 -29 -2 -29 -9 -5 -4 14 -3 28 3 32 16 11 26 -1 25
-30z m-42 -24 c-3 -8 -6 -5 -6 6 -1 11 2 17 5 13 3 -3 4 -12 1 -19z m69 -36
c-11 -10 -15 4 -8 28 l7 25 3 -23 c2 -13 1 -26 -2 -30z m-43 -59 c5 -25 -10
-63 -25 -63 -3 0 -5 8 -3 18 2 9 4 29 4 45 1 35 17 35 24 0z m17 -47 c0 -3 -4
-8 -10 -11 -5 -3 -10 -1 -10 4 0 6 5 11 10 11 6 0 10 -2 10 -4z m10 -57 c0 -5
-7 -9 -15 -9 -8 0 -15 7 -15 15 0 9 6 12 15 9 8 -4 15 -10 15 -15z m83 -26 c3
-5 -41 -8 -97 -9 -74 0 -120 -6 -175 -23 -90 -27 -91 -37 -1 -12 36 10 90 22
120 26 49 7 53 6 41 -8 -7 -9 -10 -20 -7 -26 3 -5 -24 -14 -62 -21 -37 -6 -94
-22 -127 -35 -54 -22 -61 -23 -75 -9 -13 14 -13 17 9 35 28 23 15 26 -17 3
-21 -15 -31 -44 -14 -44 5 0 7 -15 6 -32 -2 -44 -2 -44 -16 -30 -14 14 -32 16
-23 2 3 -6 -1 -7 -9 -4 -17 7 -176 -145 -176 -168 0 -9 3 -9 10 2 7 11 9 6 6
-18 -2 -18 -6 -36 -10 -39 -4 -4 -5 2 -4 13 2 10 -1 20 -7 21 -5 2 -10 -5 -11
-15 -3 -44 -4 -48 -13 -34 -13 22 -43 -62 -31 -90 5 -13 9 -17 9 -9 1 9 7 11
19 6 9 -4 127 -45 262 -91 206 -71 247 -88 258 -109 10 -20 21 -25 50 -25 34
-1 53 -15 232 -179 107 -98 196 -183 198 -189 1 -5 -22 -31 -53 -56 -64 -52
-73 -51 -119 9 -16 20 -30 34 -33 31 -3 -3 2 -26 11 -52 12 -35 13 -50 5 -55
-7 -4 -4 -9 10 -14 24 -7 19 -25 -7 -25 -15 0 -15 2 -2 11 11 8 9 9 -10 3 -14
-3 -32 -11 -40 -16 -12 -8 -12 -9 3 -4 9 3 17 1 17 -4 0 -6 -4 -10 -9 -10 -5
0 -17 -3 -27 -7 -13 -5 -15 -3 -9 7 6 10 3 12 -16 6 -58 -16 -109 -18 -124 -6
-19 16 -19 30 0 30 55 0 156 91 174 157 32 115 -8 222 -103 278 -119 70 -267
24 -331 -103 -18 -38 -24 -112 -12 -156 l8 -29 -25 16 c-32 21 -36 21 -36 0
-1 -24 -45 -95 -53 -86 -4 3 -7 1 -7 -5 0 -6 10 -17 23 -23 31 -17 61 -49 45
-49 -16 -1 7 -14 41 -25 16 -5 21 -4 17 4 -4 6 -2 11 3 11 6 0 11 -7 11 -15 0
-8 5 -15 10 -15 25 0 7 30 -24 40 -31 10 -34 14 -29 41 6 43 26 84 41 87 8 1
11 -2 7 -9 -15 -24 105 -119 150 -119 8 0 15 -7 15 -15 0 -17 -40 -29 -69 -21
-57 16 -66 18 -51 7 13 -9 12 -11 -5 -12 l-20 0 20 -8 c12 -5 26 -4 34 3 11 8
13 8 8 0 -8 -14 14 -24 51 -24 22 0 27 -4 27 -26 0 -26 -1 -26 -52 -20 -29 3
-90 20 -135 36 -45 16 -84 28 -86 25 -3 -3 -1 -5 4 -5 6 0 19 -7 30 -15 17
-14 16 -15 -13 -1 -34 17 -37 34 -10 64 19 21 16 26 -35 51 -15 8 -25 18 -21
24 3 5 -22 37 -55 71 -81 83 -83 94 -27 135 25 18 44 36 42 39 -1 4 -11 25
-21 47 -11 22 -21 34 -23 27 -3 -7 -23 -24 -45 -38 -33 -21 -42 -23 -50 -12
-7 10 -8 8 -7 -7 2 -33 -1 -59 -6 -53 -3 3 -7 23 -9 44 -2 22 -12 73 -21 115
-10 42 -15 84 -12 93 9 24 102 23 116 -1 8 -14 10 -4 11 42 0 35 -4 55 -8 47
-5 -7 -32 -16 -60 -21 -50 -8 -51 -7 -57 20 -3 15 -3 43 1 63 4 22 2 36 -4 36
-6 0 -8 10 -6 23 4 20 4 20 -8 -3 -8 -16 -12 -75 -13 -165 0 -127 2 -147 26
-211 26 -70 26 -71 6 -83 -22 -14 -32 -6 -43 36 -3 13 -10 21 -14 18 -5 -3
-12 0 -16 6 -4 8 -3 9 4 5 15 -9 15 -10 -2 66 -8 35 -17 90 -20 123 -6 56 -5
61 13 61 18 0 19 -2 5 -17 -11 -12 -12 -19 -4 -24 15 -9 23 0 27 30 3 20 -1
25 -18 25 -20 0 -21 4 -16 54 3 30 19 94 36 142 16 49 29 90 27 92 -2 2 -18
-35 -34 -82 -28 -75 -42 -138 -56 -241 -2 -16 -2 4 0 45 7 157 71 303 183 422
116 124 264 205 421 231 45 8 189 7 193 0z m51 -22 c-2 -3 28 -15 68 -27 62
-20 74 -21 81 -9 9 17 33 20 41 6 4 -5 -2 -7 -13 -4 -34 9 -33 -25 0 -43 l31
-16 -22 -15 c-19 -14 -26 -13 -72 7 -27 12 -56 19 -64 16 -8 -3 -13 -2 -10 3
6 10 -60 31 -98 31 -49 0 -23 -23 45 -41 35 -9 81 -23 102 -32 20 -9 37 -12
37 -8 0 5 12 6 27 3 26 -5 26 -5 7 -21 -10 -9 -19 -20 -19 -26 -1 -22 -39 -84
-54 -87 -10 -2 -5 -7 13 -16 15 -7 24 -8 21 -2 -6 10 56 121 82 148 7 7 13 18
13 23 0 31 154 -109 210 -191 l38 -56 -24 -11 c-28 -13 -31 -6 -6 14 15 13 15
13 -8 7 -33 -9 -33 -9 -33 -46 1 -26 -1 -29 -7 -13 -4 11 -6 23 -3 27 2 4 -2
18 -8 30 -11 21 -11 22 4 9 38 -31 14 12 -39 68 -35 38 -61 58 -70 54 -10 -4
-12 0 -7 13 5 14 3 16 -12 10 -11 -4 -16 -4 -12 0 7 8 -20 44 -33 44 -5 0 -11
-7 -14 -16 -5 -12 -2 -15 9 -10 9 3 13 2 10 -4 -3 -5 8 -19 26 -32 47 -35 127
-138 122 -157 -5 -19 -56 -51 -82 -51 -9 0 -27 -7 -39 -16 -12 -8 -46 -23 -75
-32 -34 -11 -55 -25 -63 -41 -7 -14 -45 -41 -91 -65 -43 -23 -88 -48 -101 -56
-38 -25 -53 -4 -78 108 -13 56 -25 106 -28 111 -3 4 -21 68 -40 142 -19 74
-38 144 -42 156 -5 19 -1 23 29 28 56 11 77 -7 77 -65 0 -29 -5 -50 -12 -54
-7 -3 7 -4 32 -3 l44 2 11 63 12 62 -54 0 c-40 0 -53 4 -53 15 0 10 10 15 28
15 21 0 24 -2 12 -10 -12 -8 -11 -10 8 -10 12 0 22 5 22 11 0 8 4 8 13 0 11
-9 14 -4 15 25 1 29 -2 35 -16 32 -10 -2 -16 -11 -14 -23 2 -17 1 -17 -7 -5
-24 34 -13 41 63 38 41 -2 72 -5 70 -7z m-221 -68 c-7 -2 -19 -2 -25 0 -7 3
-2 5 12 5 14 0 19 -2 13 -5z m184 1 c-3 -3 -12 -4 -19 -1 -8 3 -5 6 6 6 11 1
17 -2 13 -5z m-252 -14 c-27 -12 -43 -12 -25 0 8 5 22 9 30 9 10 0 8 -3 -5 -9z
m570 -36 c44 -39 32 -36 -29 8 -21 15 -33 28 -25 28 8 -1 32 -17 54 -36z
m-583 8 c13 -13 56 -203 50 -224 -3 -13 -1 -19 5 -15 6 4 15 -21 22 -62 7 -38
23 -103 36 -146 14 -44 23 -81 20 -83 -6 -6 -188 151 -222 192 -32 38 -101 91
-108 84 -6 -5 20 -29 199 -188 59 -52 103 -96 98 -98 -8 -2 -501 163 -508 171
-2 2 3 22 12 44 l16 41 45 -15 c24 -8 49 -23 56 -33 10 -17 12 -17 24 -2 19
25 16 29 -22 36 -19 4 -43 18 -54 32 -18 23 -19 28 -6 48 8 13 12 26 8 30 -5
4 -1 6 7 4 9 -2 14 3 12 12 -2 8 0 12 4 7 9 -9 44 22 44 40 0 7 6 12 13 11 6
-2 11 3 10 10 -2 6 0 11 5 11 4 -1 14 -1 22 0 13 1 13 2 0 11 -11 7 -5 8 19 5
41 -5 81 -40 81 -72 0 -27 4 -28 39 -7 l27 16 -26 53 c-14 30 -31 54 -37 54
-7 1 -13 5 -13 10 0 5 13 9 28 9 16 -1 37 4 48 11 16 10 15 10 -11 5 -23 -4
-27 -3 -15 5 15 11 58 6 72 -7z m159 9 c6 9 9 -4 8 -36 0 -35 -3 -44 -8 -30
-9 24 -23 86 -14 66 5 -11 7 -11 14 0z m26 -68 c-2 -16 -4 -3 -4 27 0 30 2 43
4 28 2 -16 2 -40 0 -55z m198 67 c3 -5 1 -10 -4 -10 -6 0 -11 5 -11 10 0 6 2
10 4 10 3 0 8 -4 11 -10z m-475 -100 c21 -41 20 -60 -3 -60 -7 0 -6 4 3 10 12
8 11 13 -8 33 -19 20 -30 57 -17 57 2 0 14 -18 25 -40z m715 -68 c-6 -7 -35
18 -35 31 0 5 9 2 20 -8 11 -10 18 -20 15 -23z m33 -32 c7 -11 9 -20 4 -20 -4
0 -13 9 -20 20 -7 11 -9 20 -4 20 4 0 13 -9 20 -20z m166 -208 c8 -31 17 -82
20 -113 6 -55 5 -56 -18 -52 -21 4 -25 12 -31 67 -3 34 -17 92 -30 130 -22 63
-23 69 -7 85 16 16 18 15 34 -22 10 -21 24 -64 32 -95z m-94 85 c0 -5 -4 -5
-10 -2 -13 8 -13 7 10 -60 11 -32 21 -84 23 -114 l2 -56 -63 0 -62 0 0 -35 0
-35 52 3 c75 4 84 -5 71 -65 -22 -94 -53 -162 -71 -158 -28 5 -92 46 -92 58 0
13 -49 -63 -50 -76 0 -4 4 -6 9 -5 5 2 28 -8 51 -22 36 -22 41 -28 36 -53 -4
-21 -2 -26 7 -21 8 6 8 3 -1 -9 -12 -14 -30 -1 -165 122 -84 76 -180 162 -215
191 -35 29 -61 54 -59 56 5 5 253 -79 311 -105 47 -21 109 -35 102 -23 -8 13
-66 34 -248 93 -100 32 -168 58 -168 66 0 7 15 20 33 29 17 9 65 37 105 61 42
26 79 43 88 39 9 -4 32 11 62 40 65 63 79 69 92 44 10 -18 12 -19 26 -5 24 24
73 47 85 39 6 -3 13 4 16 16 4 16 8 18 14 8 5 -7 9 -17 9 -21z m-1150 -44
c-11 -17 -11 -17 -6 0 3 10 6 24 7 30 0 9 2 9 5 0 3 -7 0 -20 -6 -30z m1169
-13 c0 -10 -3 -8 -9 5 -12 27 -12 43 0 25 5 -8 9 -22 9 -30z m21 -58 c0 -15
-2 -15 -10 -2 -13 20 -13 33 0 25 6 -3 10 -14 10 -23z m-1219 -43 c-5 -13 -10
-19 -10 -12 -1 15 10 45 15 40 3 -2 0 -15 -5 -28z m1226 -26 c-3 -10 -5 -4 -5
12 0 17 2 24 5 18 2 -7 2 -21 0 -30z m-1230 -45 c-3 -7 -5 -2 -5 12 0 14 2 19
5 13 2 -7 2 -19 0 -25z m125 -15 c-6 -2 -10 -9 -6 -14 3 -5 -18 -9 -47 -9 -58
0 -59 9 -2 20 46 9 74 11 55 3z m-125 -95 c-2 -18 -4 -6 -4 27 0 33 2 48 4 33
2 -15 2 -42 0 -60z m1171 75 c-16 -2 -40 -2 -55 0 -16 2 -3 4 27 4 30 0 43 -2
28 -4z m118 -11 c-10 -2 -22 0 -28 6 -6 6 0 7 19 4 21 -5 23 -7 9 -10z m-59
-39 c-3 -10 -5 -4 -5 12 0 17 2 24 5 18 2 -7 2 -21 0 -30z m60 -37 c-5 -34
-17 -88 -28 -120 -10 -33 -15 -64 -12 -69 3 -6 1 -7 -5 -3 -6 3 -13 -3 -17
-14 -3 -11 -22 -42 -41 -70 -19 -27 -33 -53 -32 -57 2 -5 -1 -10 -7 -11 -5 -2
-30 -23 -55 -46 -25 -24 -58 -51 -73 -60 -15 -10 -25 -22 -22 -26 3 -5 0 -12
-6 -16 -8 -4 -9 -3 -5 4 9 15 -7 15 -22 0 -9 -9 -13 -7 -18 5 -3 9 -4 24 -1
31 5 12 -2 14 -31 10 -36 -4 -36 -4 -15 11 18 13 27 14 44 4 18 -9 25 -7 48
17 14 16 17 21 5 11 -11 -9 -25 -17 -30 -17 -5 0 2 9 15 19 14 10 30 17 37 14
6 -2 36 23 65 56 43 46 58 57 71 50 12 -6 20 -3 32 16 15 22 15 25 -1 34 -15
8 -15 13 -4 38 26 55 61 167 61 194 0 30 20 56 42 56 12 0 13 -11 5 -61z m-62
-16 c-4 -12 -9 -19 -12 -17 -3 3 -2 15 2 27 4 12 9 19 12 17 3 -3 2 -15 -2
-27z m-562 -1 c21 -5 35 -14 32 -20 -4 -5 -14 -5 -27 2 -11 6 -40 12 -65 15
-25 2 -48 6 -51 9 -9 9 72 5 111 -6z m-124 -3 c-9 -9 -80 -56 -84 -56 -29 0
49 58 79 60 5 0 7 -2 5 -4z m127 -26 c18 -7 30 -7 39 0 9 7 16 6 25 -5 7 -9 8
-15 2 -15 -6 0 -12 5 -14 11 -2 7 -12 0 -21 -15 -10 -14 -13 -26 -7 -26 5 0
10 5 10 10 0 19 30 10 46 -14 8 -14 22 -22 29 -20 13 5 41 -33 32 -43 -3 -2
-8 5 -12 16 -8 26 -17 26 -33 0 -11 -18 -11 -20 5 -17 14 2 19 -5 21 -29 2
-25 -1 -33 -12 -33 -9 0 -16 -5 -16 -11 0 -6 7 -8 16 -5 14 5 16 1 10 -25 -3
-18 -1 -38 5 -45 15 -18 -7 -59 -25 -45 -9 8 -19 4 -36 -14 -13 -14 -29 -24
-36 -21 -7 3 -11 -2 -10 -9 4 -25 17 -31 27 -12 6 9 15 17 22 17 7 0 -1 -12
-16 -25 -15 -14 -33 -25 -40 -25 -7 0 -6 4 3 10 13 8 13 10 0 14 -8 2 -26 4
-40 3 -19 -2 -24 2 -22 16 2 13 -3 16 -20 14 -12 -2 -24 -10 -26 -17 -3 -8 0
-10 9 -5 10 6 11 5 4 -3 -8 -8 -21 -9 -48 -1 -32 9 -37 13 -32 32 5 17 4 19
-4 7 -9 -12 -13 -11 -33 6 -13 12 -30 24 -38 27 -9 3 -6 6 9 6 17 1 22 5 17
17 -3 9 -6 20 -6 25 0 5 -5 9 -11 9 -5 0 -7 -5 -3 -12 5 -7 3 -8 -6 -3 -8 5
-18 1 -27 -10 -7 -11 -13 -14 -13 -8 0 7 5 15 10 18 17 10 11 53 -7 58 -12 3
-8 5 9 6 31 1 49 21 20 21 -15 0 -19 5 -15 20 3 11 9 20 13 20 21 0 147 -53
157 -67 7 -9 19 -13 28 -9 9 3 32 -1 52 -9 20 -8 38 -13 41 -11 10 10 -11 26
-43 32 -18 3 -36 13 -39 21 -4 8 -12 13 -20 10 -13 -5 -165 38 -176 50 -3 3 5
4 17 1 27 -7 41 21 19 38 -9 6 -13 14 -9 17 3 4 1 7 -4 7 -6 0 -14 -5 -16 -10
-3 -6 -4 -5 -3 2 2 7 10 13 18 13 9 0 25 8 36 18 19 18 21 18 31 0 10 -17 10
-16 11 4 0 12 6 24 13 26 22 9 105 7 133 -3z m541 -42 c-3 -7 -5 -2 -5 12 0
14 2 19 5 13 2 -7 2 -19 0 -25z m-437 2 c9 -16 8 -18 -5 -14 -8 4 -15 12 -15
20 0 20 7 17 20 -6z m-731 -55 c0 -5 -4 -3 -9 5 -5 8 -9 22 -9 30 0 16 17 -16
18 -35z m131 11 c-1 -5 4 -13 12 -18 9 -7 10 -11 1 -14 -6 -3 -23 -16 -38 -30
-32 -29 -35 -30 -30 -3 3 16 0 19 -13 15 -13 -5 -12 -2 3 9 11 9 20 20 20 26
0 12 26 30 38 26 5 -1 8 -6 7 -11z m1016 -12 c-4 -9 -9 -15 -11 -12 -3 3 -3
13 1 22 4 9 9 15 11 12 3 -3 3 -13 -1 -22z m-140 -20 c1 -9 0 -13 -4 -10 -3 4
-7 14 -8 22 -1 9 0 13 4 10 3 -4 7 -14 8 -22z m30 -29 c1 -20 -2 -23 -18 -14
-21 12 -24 21 -3 13 10 -4 13 0 10 16 -2 13 -1 20 2 16 4 -4 8 -18 9 -31z m84
-4 c-6 -12 -15 -19 -20 -16 -5 3 -2 14 8 24 22 22 27 19 12 -8z m-343 -3 c-3
-8 -6 -5 -6 6 -1 11 2 17 5 13 3 -3 4 -12 1 -19z m295 4 c-7 -2 -10 -8 -7 -12
3 -5 2 -11 -3 -14 -4 -2 -8 6 -8 19 0 16 4 21 15 17 10 -4 11 -7 3 -10z
m-1022 -21 c0 -5 3 -18 6 -28 5 -16 4 -16 -10 1 -18 23 -20 36 -6 36 6 0 10
-4 10 -9z m-67 -23 c-4 -7 4 -9 20 -6 22 4 30 -1 50 -31 29 -44 115 -135 140
-148 21 -11 13 -43 -10 -43 -8 0 -11 -5 -7 -12 4 -8 3 -10 -2 -5 -5 5 -9 12
-9 17 0 14 -102 99 -111 92 -5 -4 -6 -3 -2 2 4 5 -7 28 -26 50 -18 23 -41 56
-50 73 -14 28 -14 32 -1 27 8 -3 12 -11 8 -16z m1101 -18 c-6 -6 -10 -3 -10
10 0 13 4 16 10 10 7 -7 7 -13 0 -20z m-733 -33 c-8 -8 -11 -7 -11 4 0 9 3 19
7 23 4 4 9 2 11 -4 3 -7 -1 -17 -7 -23z m-267 7 c3 -8 2 -12 -4 -9 -6 3 -10
10 -10 16 0 14 7 11 14 -7z m47 -56 c11 -21 11 -22 -4 -9 -10 7 -17 17 -17 22
0 15 9 10 21 -13z m152 -23 c-15 -24 -29 -42 -31 -40 -4 4 46 85 53 85 2 0 -8
-20 -22 -45z m39 12 c-7 -8 -9 -16 -7 -19 7 -7 -16 -58 -26 -58 -4 0 -9 6 -12
14 -6 15 41 91 50 82 3 -3 1 -12 -5 -19z m688 9 c0 -2 -8 -10 -17 -17 -16 -13
-17 -12 -4 4 13 16 21 21 21 13z m-829 -43 c13 -17 13 -17 -6 -3 -11 8 -22 16
-24 17 -2 2 0 3 6 3 6 0 17 -8 24 -17z m261 -26 c10 -19 8 -18 -21 2 -17 13
-29 27 -25 32 7 12 30 -6 46 -34z m411 -10 c-7 -12 -19 3 -28 33 l-8 25 21
-25 c11 -14 18 -29 15 -33z m210 18 c-10 -13 -22 -25 -27 -25 -5 0 1 11 14 25
30 32 36 32 13 0z m-968 -5 c3 -5 2 -10 -4 -10 -5 0 -13 5 -16 10 -3 6 -2 10
4 10 5 0 13 -4 16 -10z m438 -34 c9 1 17 -2 17 -8 0 -15 -43 -5 -47 12 -3 10
-2 11 4 4 4 -6 16 -10 26 -8z m-305 -45 c-2 -25 -5 -28 -20 -20 -22 12 -24 21
-3 12 9 -3 15 -2 14 3 -3 15 1 34 6 34 3 0 4 -13 3 -29z m667 -20 c-2 -2 -11
3 -19 12 -8 8 -12 17 -9 21 3 3 12 -2 19 -12 7 -9 11 -19 9 -21z m-315 19 c0
-5 -5 -10 -11 -10 -5 0 -7 5 -4 10 3 6 8 10 11 10 2 0 4 -4 4 -10z m283 -32
c-4 -7 -8 -17 -8 -22 0 -5 -6 -11 -14 -14 -9 -3 -11 0 -6 8 6 10 4 12 -9 7
-10 -4 -22 -7 -27 -7 -5 0 -9 -4 -9 -10 0 -5 8 -7 18 -4 14 5 14 4 2 -4 -8 -6
-19 -7 -25 -2 -6 5 -34 2 -65 -6 -30 -8 -67 -14 -82 -14 -15 0 -30 -4 -33 -10
-3 -5 -25 -10 -48 -10 -38 0 -39 1 -21 14 10 8 21 10 22 5 5 -12 32 -12 32 0
0 5 -5 11 -12 13 -24 8 3 26 49 33 27 3 59 9 73 12 23 6 23 7 5 15 -14 6 -11
6 11 3 19 -4 50 2 79 13 41 16 51 17 63 6 8 -8 10 -19 5 -26z m-261 4 c-7 -2
-10 -8 -6 -13 3 -5 -2 -9 -10 -9 -8 0 -17 4 -20 9 -3 4 -18 6 -32 3 -19 -3
-25 -1 -20 7 4 6 28 10 54 9 26 -1 41 -3 34 -6z m61 -9 c-7 -2 -21 -2 -30 0
-10 3 -4 5 12 5 17 0 24 -2 18 -5z m232 -3 c-3 -5 -11 -10 -16 -10 -6 0 -7 5
-4 10 3 6 11 10 16 10 6 0 7 -4 4 -10z m-500 -51 c19 -7 19 -8 -1 -8 -12 -1
-37 6 -55 14 l-34 16 35 -7 c19 -4 44 -10 55 -15z m379 3 c2 -4 -7 -8 -22 -9
-24 -2 -24 -1 -7 7 11 5 21 9 22 9 1 1 4 -3 7 -7z m-321 -19 c-7 -2 -19 -2
-25 0 -7 3 -2 5 12 5 14 0 19 -2 13 -5z m260 0 c-7 -2 -19 -2 -25 0 -7 3 -2 5
12 5 14 0 19 -2 13 -5z m-55 -10 c-10 -2 -26 -2 -35 0 -10 3 -2 5 17 5 19 0
27 -2 18 -5z"/>
<path d="M2153 3301 c-1 -12 4 -21 10 -21 7 0 6 -4 -3 -10 -13 -8 -12 -10 3
-10 20 0 22 19 4 44 -12 16 -13 16 -14 -3z"/>
<path d="M2063 3256 c-63 -50 -134 -130 -161 -182 -9 -17 -8 -25 7 -38 22 -20
42 -21 35 -2 -3 8 0 17 6 21 8 5 6 13 -6 26 -15 17 -15 20 14 56 32 41 109
114 157 150 17 12 27 22 24 22 -4 1 -38 -23 -76 -53z m-133 -188 c0 7 5 10 11
6 8 -4 7 -9 -2 -15 -15 -9 -29 -3 -29 14 0 7 4 6 10 -3 7 -11 10 -11 10 -2z"/>
<path d="M2555 3200 c-3 -5 -2 -10 4 -10 5 0 13 5 16 10 3 6 2 10 -4 10 -5 0
-13 -4 -16 -10z"/>
<path d="M2440 3064 c0 -8 5 -12 10 -9 6 3 10 10 10 16 0 5 -4 9 -10 9 -5 0
-10 -7 -10 -16z"/>
<path d="M2470 3065 c0 -9 11 -13 30 -13 17 1 30 6 30 13 0 7 -13 12 -30 13
-19 0 -30 -4 -30 -13z"/>
<path d="M2540 3065 c0 -9 5 -15 11 -13 6 2 11 8 11 13 0 5 -5 11 -11 13 -6 2
-11 -4 -11 -13z"/>
<path d="M2580 3065 c0 -8 5 -15 10 -15 6 0 10 7 10 15 0 8 -4 15 -10 15 -5 0
-10 -7 -10 -15z"/>
<path d="M2610 3066 c0 -8 5 -18 10 -21 6 -3 10 3 10 14 0 12 -4 21 -10 21 -5
0 -10 -6 -10 -14z"/>
<path d="M2670 3067 c0 -4 -4 -5 -10 -2 -5 3 -10 1 -10 -4 0 -6 6 -11 14 -11
8 0 21 -3 30 -6 11 -4 16 0 16 13 0 12 -7 19 -20 19 -11 0 -20 -4 -20 -9z"/>
<path d="M2295 3070 c-4 -6 -3 -16 3 -22 13 -13 23 4 13 21 -7 10 -10 10 -16
1z"/>
<path d="M2327 3074 c-8 -8 1 -24 14 -24 5 0 9 7 9 15 0 15 -12 20 -23 9z"/>
<path d="M2360 3066 c0 -9 5 -16 10 -16 6 0 10 4 10 9 0 6 -4 13 -10 16 -5 3
-10 -1 -10 -9z"/>
<path d="M2463 2566 c5 -14 50 -13 54 1 3 7 -7 11 -27 11 -17 -1 -29 -6 -27
-12z"/>
<path d="M2623 2314 c-3 -9 0 -21 7 -27 10 -10 12 -8 7 6 -4 11 -1 17 8 17 9
0 12 -6 9 -15 -4 -8 -1 -15 5 -15 6 0 11 8 11 19 0 23 -39 36 -47 15z"/>
<path d="M2030 2490 c-8 -5 -10 -10 -5 -10 6 0 17 5 25 10 8 5 11 10 5 10 -5
0 -17 -5 -25 -10z"/>
<path d="M2024 2465 c-10 -8 -14 -15 -8 -15 5 0 19 7 30 15 10 8 14 15 8 15
-5 0 -19 -7 -30 -15z"/>
<path d="M548 1539 c2 -112 -1 -165 -9 -175 -9 -12 -5 -14 27 -14 l39 0 -3 70
-4 70 37 0 c47 0 98 22 119 51 9 13 16 42 16 64 0 53 -32 85 -87 90 -21 1 -30
1 -21 -2 28 -7 68 -62 68 -93 0 -63 -37 -100 -100 -100 l-30 0 0 100 0 100
-27 0 -28 0 3 -161z"/>
<path d="M1970 1673 c1 -25 2 -26 11 -10 6 10 20 22 32 27 19 8 18 9 -10 9
-30 1 -33 -2 -33 -26z"/>
<path d="M2080 1537 c0 -113 -4 -167 -12 -175 -9 -9 -2 -12 32 -12 34 0 41 3
32 12 -8 8 -12 62 -12 175 0 156 -1 163 -20 163 -19 0 -20 -7 -20 -163z"/>
<path d="M2177 1693 c13 -2 30 -14 38 -26 15 -21 15 -21 15 6 0 25 -3 27 -37
26 -24 -1 -29 -3 -16 -6z"/>
<path d="M3238 1539 c2 -112 -1 -165 -9 -175 -9 -12 -5 -14 27 -14 l39 0 -3
70 -4 70 37 0 c47 0 98 22 119 51 9 13 16 42 16 64 0 53 -32 85 -87 90 -21 1
-30 1 -21 -2 28 -7 68 -62 68 -93 0 -63 -37 -100 -100 -100 l-30 0 0 100 0
100 -27 0 -28 0 3 -161z"/>
<path d="M1032 1668 c2 -15 10 -23 23 -23 30 0 27 39 -3 43 -20 3 -23 0 -20
-20z"/>
<path d="M2272 1668 c2 -15 10 -23 23 -23 30 0 27 39 -3 43 -20 3 -23 0 -20
-20z"/>
<path d="M3506 1681 c-11 -18 6 -42 28 -39 29 4 29 42 -1 46 -11 2 -24 -1 -27
-7z"/>
<path d="M835 1598 c-18 -8 -20 -18 -20 -128 l0 -120 33 0 c29 0 32 2 22 19
-15 29 -12 142 5 175 13 24 13 27 1 17 -12 -10 -15 -7 -18 17 -3 25 -6 28 -23
20z"/>
<path d="M932 1602 c-13 -4 -23 -11 -22 -17 1 -18 48 -24 67 -9 16 12 16 15 3
24 -17 11 -15 11 -48 2z"/>
<path d="M1165 1598 c-18 -8 -20 -17 -17 -114 3 -72 0 -109 -8 -119 -11 -13
-6 -15 30 -15 34 0 40 3 32 13 -6 7 -13 65 -14 129 -3 111 -4 115 -23 106z"/>
<path d="M1255 1596 l-30 -14 36 5 c54 8 69 -19 69 -127 0 -54 -5 -91 -12 -98
-9 -9 -2 -12 31 -12 37 0 42 2 32 14 -8 10 -11 46 -9 110 2 52 1 93 -1 91 -2
-2 -11 4 -20 15 -22 26 -60 32 -96 16z"/>
<path d="M1433 1599 c-18 -5 -35 -14 -39 -20 -4 -8 0 -8 14 0 33 18 69 13 86
-11 20 -28 23 -187 4 -206 -9 -9 -2 -12 31 -12 34 0 41 3 33 13 -5 6 -12 56
-14 109 -3 104 -11 122 -58 132 -14 2 -39 0 -57 -5z"/>
<path d="M1742 1589 c23 -11 40 -29 44 -44 4 -16 13 -25 25 -25 39 0 12 55
-36 76 -52 21 -76 17 -33 -7z"/>
<path d="M2405 1598 c-18 -8 -20 -17 -17 -114 3 -72 0 -109 -8 -119 -11 -13
-6 -15 30 -15 34 0 40 3 32 13 -6 7 -13 65 -14 129 -3 111 -4 115 -23 106z"/>
<path d="M2495 1596 l-30 -14 36 5 c54 8 69 -19 69 -127 0 -54 -5 -91 -12 -98
-9 -9 -2 -12 31 -12 37 0 42 2 32 14 -8 10 -11 46 -9 110 2 52 1 93 -1 91 -2
-2 -11 4 -20 15 -22 26 -60 32 -96 16z"/>
<path d="M2673 1599 c-18 -5 -35 -14 -39 -20 -4 -8 0 -8 14 0 33 18 69 13 86
-11 20 -28 23 -187 4 -206 -9 -9 -2 -12 31 -12 34 0 41 3 33 13 -5 6 -12 56
-14 109 -3 104 -11 122 -58 132 -14 2 -39 0 -57 -5z"/>
<path d="M2982 1589 c23 -11 40 -29 44 -44 4 -16 13 -25 25 -25 39 0 12 55
-36 76 -52 21 -76 17 -33 -7z"/>
<path d="M3525 1598 c-18 -8 -20 -18 -20 -128 l0 -120 33 0 c24 0 31 3 25 13
-4 6 -10 64 -13 128 -5 112 -6 116 -25 107z"/>
<path d="M3752 1589 c23 -11 40 -29 44 -44 4 -16 13 -25 25 -25 39 0 12 55
-36 76 -52 21 -76 17 -33 -7z"/>
<path d="M4000 1602 c0 -17 66 -53 84 -46 16 6 22 29 9 37 -19 11 -93 18 -93
9z"/>
<path d="M4292 1589 c23 -11 40 -29 44 -44 4 -16 13 -25 25 -25 39 0 12 55
-36 76 -52 21 -76 17 -33 -7z"/>
<path d="M4525 1600 c17 -5 40 -22 52 -37 l23 -28 0 27 c0 32 -5 36 -61 43
-38 4 -40 4 -14 -5z"/>
<path d="M1031 1591 c-10 -6 -11 -13 -2 -29 14 -26 14 -152 1 -186 -9 -25 -9
-26 33 -25 23 0 36 3 30 6 -10 3 -13 38 -13 124 0 107 -2 119 -17 119 -10 0
-24 -4 -32 -9z"/>
<path d="M2271 1591 c-10 -6 -11 -13 -2 -29 14 -26 14 -152 1 -186 -9 -25 -9
-26 33 -25 23 0 36 3 30 6 -10 3 -13 38 -13 124 0 107 -2 119 -17 119 -10 0
-24 -4 -32 -9z"/>
<path d="M3931 1574 c-41 -34 -58 -91 -42 -143 16 -55 52 -81 112 -81 43 0 54
5 87 36 26 26 29 30 8 15 -40 -29 -106 -28 -142 2 -22 19 -28 34 -32 80 -4 52
-2 58 26 87 37 37 25 40 -17 4z"/>
<path d="M4447 1582 c-20 -21 -23 -77 -5 -89 7 -4 39 -19 72 -33 51 -21 62
-30 64 -52 2 -18 -4 -31 -20 -42 -12 -9 -17 -16 -10 -16 22 0 62 48 62 73 0
30 -16 44 -94 82 -64 32 -78 52 -51 79 9 9 12 16 7 16 -5 0 -16 -8 -25 -18z"/>
<path d="M1634 1559 c-25 -27 -29 -38 -29 -90 0 -56 3 -63 33 -90 52 -46 135
-37 187 21 l20 22 -35 -21 c-71 -43 -150 -17 -170 58 -10 39 -1 90 21 117 21
26 3 14 -27 -17z"/>
<path d="M2874 1559 c-25 -27 -29 -38 -29 -90 0 -56 3 -63 33 -90 52 -46 135
-37 187 21 l20 22 -35 -21 c-71 -43 -150 -17 -170 58 -10 39 -1 90 21 117 21
26 3 14 -27 -17z"/>
<path d="M3644 1559 c-25 -27 -29 -38 -29 -90 0 -56 3 -63 33 -90 52 -46 135
-37 187 21 l20 22 -35 -21 c-71 -43 -150 -17 -170 58 -10 39 -1 90 21 117 21
26 3 14 -27 -17z"/>
<path d="M4184 1559 c-25 -27 -29 -38 -29 -90 0 -56 3 -63 33 -90 52 -46 135
-37 187 21 l20 22 -35 -21 c-71 -43 -150 -17 -170 58 -10 39 -1 90 21 117 21
26 3 14 -27 -17z"/>
<path d="M4420 1401 c0 -33 27 -52 73 -50 22 0 22 0 1 9 -11 4 -33 22 -47 40
l-27 32 0 -31z"/>
<path d="M2270 1127 c0 -31 4 -57 8 -57 8 0 5 100 -3 109 -3 2 -5 -21 -5 -52z"/>
<path d="M1708 1115 c-2 -25 0 -45 4 -45 5 0 8 20 8 45 0 25 -2 45 -4 45 -2 0
-6 -20 -8 -45z"/>
<path d="M1738 1143 c-2 -10 1 -26 6 -36 8 -13 7 -20 -4 -28 -13 -9 -13 -10 0
-6 10 2 15 16 15 41 0 40 -11 58 -17 29z"/>
<path d="M1977 1115 c17 -50 18 -52 27 -29 3 8 2 12 -4 9 -5 -3 -12 10 -16 30
-3 19 -10 35 -15 35 -4 0 -1 -20 8 -45z"/>
<path d="M2021 1153 c-1 -6 -4 -20 -7 -30 -4 -13 -3 -15 4 -5 7 11 12 6 21
-19 6 -18 13 -30 16 -27 3 3 -3 25 -14 49 -11 24 -20 39 -20 32z"/>
<path d="M2401 1118 c0 -27 3 -48 8 -48 5 0 7 9 4 20 -7 27 14 26 39 -2 l20
-23 -15 26 c-12 20 -13 29 -4 38 8 8 8 14 0 22 -8 8 -11 6 -10 -7 3 -28 -31
-30 -36 -2 -2 13 -5 2 -6 -24z"/>
<path d="M2950 1145 c0 -8 2 -15 4 -15 2 0 6 7 10 15 3 8 1 15 -4 15 -6 0 -10
-7 -10 -15z"/>
<path d="M2998 1115 c-2 -25 0 -45 4 -45 5 0 8 20 8 45 0 25 -2 45 -4 45 -2 0
-6 -20 -8 -45z"/>
<path d="M1893 1105 c0 -22 2 -30 4 -17 2 12 2 30 0 40 -3 9 -5 -1 -4 -23z"/>
<path d="M2066 1125 c-9 -26 -7 -32 5 -12 6 10 9 21 6 23 -2 3 -7 -2 -11 -11z"/>
<path d="M2173 1105 c0 -22 2 -30 4 -17 2 12 2 30 0 40 -3 9 -5 -1 -4 -23z"/>
<path d="M1840 1119 c0 -8 7 -23 15 -33 11 -14 15 -16 15 -5 0 8 -7 23 -15 33
-11 14 -15 16 -15 5z"/>
<path d="M2310 1100 c0 -16 4 -30 8 -30 5 0 7 14 4 30 -2 17 -6 30 -8 30 -2 0
-4 -13 -4 -30z"/>
<path d="M2550 1075 c0 -30 3 -55 8 -55 4 0 7 25 7 55 0 30 -3 55 -7 55 -5 0
-8 -25 -8 -55z"/>
<path d="M2590 1115 c10 -12 10 -18 -1 -32 -12 -17 -12 -17 5 -1 19 17 16 48
-5 48 -8 0 -8 -4 1 -15z"/>
<path d="M2652 1100 c0 -19 2 -27 5 -17 2 9 2 25 0 35 -3 9 -5 1 -5 -18z"/>
<path d="M2692 1100 c0 -19 2 -27 5 -17 2 9 2 25 0 35 -3 9 -5 1 -5 -18z"/>
<path d="M2732 1100 c0 -19 2 -27 5 -17 2 9 2 25 0 35 -3 9 -5 1 -5 -18z"/>
<path d="M2812 1100 c0 -19 2 -27 5 -17 2 9 2 25 0 35 -3 9 -5 1 -5 -18z"/>
<path d="M2850 1100 c0 -16 2 -30 4 -30 2 0 6 14 8 30 3 17 1 30 -4 30 -4 0
-8 -13 -8 -30z"/>
<path d="M2888 1100 c2 -16 7 -30 11 -30 4 0 6 14 3 30 -2 17 -7 30 -11 30 -4
0 -6 -13 -3 -30z"/>
<path d="M3105 1100 c0 -15 3 -26 8 -23 4 2 7 13 7 23 0 10 -3 21 -7 23 -5 3
-8 -8 -8 -23z"/>
<path d="M3130 1128 c0 -4 5 -19 11 -35 l11 -28 12 24 13 23 7 -23 c6 -22 7
-23 17 -6 6 10 8 21 5 24 -3 4 -6 0 -6 -8 -1 -8 -7 -3 -14 10 l-14 24 -7 -23
-7 -23 -14 24 c-7 13 -13 21 -14 17z"/>
<path d="M3240 1100 c0 -16 2 -30 4 -30 2 0 6 14 8 30 3 17 1 30 -4 30 -4 0
-8 -13 -8 -30z"/>
<path d="M3278 1100 c2 -16 7 -30 11 -30 4 0 6 14 3 30 -2 17 -7 30 -11 30 -4
0 -6 -13 -3 -30z"/>
<path d="M2118 1099 c-25 -14 -22 -29 6 -27 17 2 22 7 18 20 -2 10 -5 18 -6
18 0 0 -9 -5 -18 -11z"/>
<path d="M3060 1104 c0 -13 18 -39 24 -34 2 3 -2 14 -10 24 -8 11 -14 16 -14
10z"/>
<path d="M1776 1086 c3 -9 16 -16 28 -15 14 0 16 2 6 6 -8 3 -21 10 -28 16 -9
7 -11 6 -6 -7z"/>
<path d="M2486 1086 c3 -9 16 -16 28 -15 14 0 16 2 6 6 -8 3 -21 10 -28 16 -9
7 -11 6 -6 -7z"/>
<path d="M2625 1089 c-4 -6 -5 -12 -2 -15 2 -3 7 2 10 11 7 17 1 20 -8 4z"/>
<path d="M2210 1079 c0 -5 9 -9 20 -9 11 0 20 2 20 4 0 2 -9 6 -20 9 -11 3
-20 1 -20 -4z"/>
</g>
</svg>
